<?xml version="1.0" encoding="UTF-8" standalone="no"?>
<svg width="17px" height="8px" viewBox="0 0 17 8" version="1.1" xmlns="http://www.w3.org/2000/svg" xmlns:xlink="http://www.w3.org/1999/xlink">
    <!-- Generator: Sketch 42 (36781) - http://www.bohemiancoding.com/sketch -->
    <title>Shape Copy 4</title>
    <desc>Created with Sketch.</desc>
    <defs></defs>
    <g id="Site-3.1" stroke="none" stroke-width="1" fill="none" fill-rule="evenodd">
        <g id="Desktop" transform="translate(-632.000000, -421.000000)" fill="#FFFFFF">
            <path d="M643.1655,429.144 L640.9995,431.31 L640.9995,418.69 L643.1655,420.857 C643.3565,421.047 643.6655,421.047 643.8565,420.857 C644.0475,420.667 644.0475,420.357 643.8565,420.167 C643.8565,420.167 640.8105,417.13 640.7895,417.115 C640.7165,417.057 640.6315,417.017 640.5325,417.009 C640.5225,417.008 640.5155,417.002 640.5065,417.002 C640.5045,417.002 640.5025,417 640.4995,417 C640.4965,417 640.4945,417.002 640.4925,417.002 C640.4855,417.002 640.4805,417.005 640.4735,417.006 C640.3555,417.012 640.2495,417.058 640.1675,417.132 C640.1605,417.139 637.1425,420.167 637.1425,420.167 C636.9525,420.357 636.9525,420.667 637.1425,420.857 C637.3335,421.047 637.6425,421.047 637.8325,420.857 L639.9995,418.69 L639.9995,431.309 L637.8325,429.143 C637.6425,428.952 637.3325,428.952 637.1425,429.143 C636.9525,429.333 636.9525,429.642 637.1425,429.832 C637.1425,429.832 640.1595,432.86 640.1655,432.866 C640.2485,432.941 640.3545,432.987 640.4745,432.994 C640.4805,432.994 640.4855,432.997 640.4925,432.997 C640.4945,432.997 640.4965,432.999 640.4995,432.999 C640.5015,432.999 640.5035,432.997 640.5065,432.997 C640.5155,432.997 640.5235,432.991 640.5325,432.991 C640.6325,432.983 640.7175,432.942 640.7905,432.884 C640.8115,432.869 643.8565,429.832 643.8565,429.832 C644.0475,429.642 644.0475,429.333 643.8565,429.143 C643.6655,428.952 643.3565,428.952 643.1655,429.144 L643.1655,429.144 Z" id="Shape-Copy-4" transform="translate(640.499875, 424.999500) rotate(-270.000000) translate(-640.499875, -424.999500) "></path>
        </g>
    </g>
</svg>