<?xml version="1.0" standalone="no"?>
<!DOCTYPE svg PUBLIC "-//W3C//DTD SVG 20010904//EN"
 "http://www.w3.org/TR/2001/REC-SVG-20010904/DTD/svg10.dtd">
<svg version="1.0" xmlns="http://www.w3.org/2000/svg"
 width="510.000000pt" height="510.000000pt" viewBox="0 0 510.000000 510.000000"
 preserveAspectRatio="xMidYMid meet">
<metadata>
Created by potrace 1.11, written by Peter Selinger 2001-2013
</metadata>
<g transform="translate(0.000000,510.000000) scale(0.100000,-0.100000)"
fill="#000000" stroke="none">
<path d="M14 5019 c-27 -44 88 -174 432 -489 43 -40 349 -305 459 -398 22 -19
120 -100 218 -180 l178 -147 -68 -31 c-109 -49 -224 -64 -307 -38 -16 5 -15 0
8 -43 70 -127 198 -208 347 -217 33 -2 77 0 98 4 l37 7 -27 -51 c-52 -97 -133
-342 -145 -441 -2 -16 -6 -37 -9 -45 -7 -22 -34 -178 -40 -236 -5 -44 -24
-176 -41 -279 -31 -205 -68 -320 -174 -550 -104 -226 -162 -370 -150 -370 2 0
-2 -10 -8 -22 -18 -33 -26 -210 -13 -263 72 -279 333 -483 618 -483 228 0 416
126 524 352 67 140 116 210 208 301 104 103 115 111 158 121 84 17 162 43 232
76 199 93 310 242 327 438 8 88 11 95 35 65 82 -104 161 -402 233 -880 25
-161 25 -730 1 -965 -2 -22 -7 -73 -10 -113 l-5 -72 915 0 915 0 1 53 c0 28 0
322 1 652 l0 600 25 49 c27 52 57 153 67 221 4 22 9 54 11 70 3 17 7 43 10 58
20 128 28 789 12 992 -11 130 -24 256 -32 305 -2 14 -7 50 -10 80 -4 30 -9 58
-10 61 -2 3 -7 27 -10 53 -45 328 -224 628 -515 861 -36 29 -76 58 -89 65 -22
11 -23 11 -16 -6 18 -43 47 -163 61 -253 18 -110 27 -376 14 -406 -7 -17 -9
-14 -10 15 -7 157 -82 364 -194 533 -29 45 -63 93 -76 107 -12 14 -38 45 -58
68 -41 49 -176 164 -237 203 -90 57 -274 118 -410 136 -62 8 -396 8 -450 0
-16 -3 -49 -5 -72 -6 l-41 -1 20 -52 c11 -29 21 -76 23 -105 l4 -53 -57 58
c-103 105 -195 129 -349 93 -96 -22 -256 -75 -338 -111 l-51 -22 -127 57
c-118 54 -147 74 -204 141 -10 11 -27 26 -39 32 -18 9 -23 8 -34 -13 -19 -36
-3 -179 35 -301 20 -66 21 -75 7 -69 -10 4 -28 11 -42 15 -70 22 -244 97 -325
140 -106 58 -141 59 -131 6 4 -17 15 -48 26 -69 12 -22 15 -35 8 -31 -7 4 -89
56 -183 114 -183 115 -422 261 -495 302 -25 14 -90 52 -145 83 -124 71 -378
199 -425 213 -56 18 -89 21 -96 11z"/>
</g>
</svg>
