<?xml version="1.0" encoding="UTF-8"?>
<svg width="64px" height="62px" viewBox="0 0 64 62" version="1.1" xmlns="http://www.w3.org/2000/svg" xmlns:xlink="http://www.w3.org/1999/xlink">
    <!-- Generator: Sketch 57.1 (83088) - https://sketch.com -->
    <title>unicorn</title>
    <desc>Created with Sketch.</desc>
    <defs>
        <linearGradient x1="0%" y1="32.2909513%" x2="100%" y2="50%" id="linearGradient-1">
            <stop stop-color="#FF639E" offset="0%"></stop>
            <stop stop-color="#5C74FF" offset="100%"></stop>
        </linearGradient>
        <path d="M55.1542029,10.2150268 C56.0762913,12.479866 56.6267659,16.619412 56.1874281,19.3952211 C55.9269511,12.6231447 50.6514247,8.03477383 48.5884473,6.97830921 C44.7646457,5.01556365 40.9964125,5.28831106 36.7818955,5.64564468 C36.9746484,5.93565458 37.4817102,7.05081168 37.3375797,8.31615248 C36.5057899,6.80568427 34.5522128,5.86487835 33.2862949,6.12208951 C30.9246372,6.60026059 28.8390851,7.29076035 27.2519122,8.1176338 C26.3767097,8.29371124 25.0830075,8.8305748 23.1329034,10.0182344 C19.8144271,12.0396724 15.8829617,17.5067042 11.4340155,16.079096 C13.243462,20.3947195 17.7392941,19.2640261 17.7392941,19.2640261 C19.8352653,15.8978398 24.8016924,12.7405297 28.4501062,11.5787638 C41.6805986,8.56645864 50.354481,17.5153355 55.246238,27.8020556 C56.57988,30.6072108 59.7802734,40.1136662 62.263487,45.5686143 C63.4211623,43.9915484 64,40.0803696 64,33.835078 C64,27.7274696 63.446403,22.7560855 62.339209,18.9209258 L62.3392125,18.9209248 C62.2887049,18.7459737 62.2263096,18.5746757 62.1524619,18.4082262 C60.6634062,15.051959 58.3306532,12.3208925 55.1542029,10.2150268 Z" id="path-2"></path>
        <path d="M23.7204486,13.7278303 L23.7256582,13.7243778 L23.7169756,13.712294 L23.6891914,13.6881266 C23.6752993,13.6760428 23.6700898,13.6553278 23.6561976,13.6449703 C23.640569,13.6328866 23.6197309,13.6259816 23.6023657,13.6138978 C21.5966932,11.9221734 1.3003295,-1.15071318 0.0604592274,0.0818288799 C-1.20545874,1.34026468 17.814568,16.5209018 19.0405461,17.449624 L19.0596478,17.4599815 L19.9991013,18.217805 C20.0129934,18.2298887 20.0164664,18.2488774 20.0303585,18.2592349 C20.0529332,18.2764974 20.0789809,18.2851287 20.1032921,18.3006649 L20.1849082,18.3662624 L20.1692796,18.3386424 C21.1504094,18.9618184 22.6472836,18.5354348 23.6058388,17.3167028 C24.5765495,16.0824345 24.6078068,14.5115475 23.7204486,13.7278303 L23.7204486,13.7278303 Z" id="path-3"></path>
    </defs>
    <g id="Page-1" stroke="none" stroke-width="1" fill="none" fill-rule="evenodd">
        <g id="unicorn">
            <path d="M62.263487,34.0234584 C57.9534618,16.8800757 43.1722633,3.0459131 27.5870592,11.5442388 C27.5870592,11.5442388 19.7345475,8.96176975 18.6023411,8.18150503 C17.4996553,7.4219553 15.7631423,6.62097558 17.0186412,8.93414976 C17.7531862,10.2840768 18.5380901,11.8204387 21.1914819,14.660119 C13.6411235,22.1192426 15.8621236,31.2752693 13.1948396,37.2964272 C10.9304267,42.4095779 8.71984568,45.4667656 10.9200076,49.3387429 C13.2069952,53.360904 19.1319775,55.3150183 23.1068557,51.1685673 C25.2670779,48.9123593 23.9247534,47.8248222 28.5456144,43.9148674 C33.2741393,42.9775139 36.1758525,40.8231547 36.1758525,36.3625263 C36.1758525,36.3625263 37.5563803,35.703099 39.3467252,46.7355589 C39.8466288,49.806616 39.8528966,54.5015322 39.3655288,60.8203072 C39.3230589,61.3709557 39.7350176,61.8517744 40.2856659,61.8942459 C40.3112523,61.8962194 40.3369051,61.8972072 40.3625675,61.8972072 L61.263487,61.8972072 C61.8157718,61.8972072 62.263487,61.449492 62.263487,60.8972072 L62.263487,34.0234584 L62.263487,34.0234584 Z" id="body" fill="#1A2241" fill-rule="nonzero"></path>
            <g id="mane" fill-rule="nonzero">
                <use fill="#60379A" xlink:href="#path-2"></use>
                <use fill="url(#linearGradient-1)" xlink:href="#path-2"></use>
            </g>
            <g id="ear" transform="translate(22.222140, 5.049781)" fill-rule="nonzero">
                <path d="M1.47165671,1.0222471 C2.46667865,2.38253162 7.09101273,2.39288912 9.45267038,7.61651977 C11.8125915,12.8401504 6.07862566,12.1565557 4.00001962,9.73980651 C1.6835113,7.04513122 0.646813044,4.79755451 0.240469006,2.84861896 C0.025141396,1.81977432 -0.54269835,-1.72421567 1.47165671,1.0222471 L1.47165671,1.0222471 Z" id="Path" fill="#1A2241"></path>
                <path d="M2.20099216,3.26637131 C3.86109858,4.25551221 5.95880626,5.88163913 6.57179534,7.74771472 C7.1813114,9.61379031 5.34408066,9.28580292 4.22923933,7.67521224 C3.11613451,6.06289532 2.59691712,4.2658697 1.99782015,3.76870988 C1.39698665,3.26982381 2.20099216,3.26637131 2.20099216,3.26637131 Z" id="Path" fill="#5E55CC"></path>
            </g>
            <path d="M14.7351267,46.1469078 C14.9417717,47.2827799 14.4208178,48.3271608 13.571663,48.4790707 C12.7207716,48.6327069 11.8629342,47.836906 11.6545526,46.7010339 C11.4479076,45.5634355 11.970598,44.5173284 12.8197528,44.3636922 C13.6706442,44.2117823 14.5284816,45.0075832 14.7351267,46.1469078 Z" id="nostril" fill="#5E55CC" fill-rule="nonzero"></path>
            <path d="M26.6649709,23.9179945 C28.1035453,23.9179945 29.2697403,25.0772967 29.2697403,26.5073685 C29.2697403,26.6713325 29.25441,26.831737 29.2250964,26.9872428 C29.0513002,26.2181851 28.3596878,25.6442438 27.5332273,25.6442438 C26.5741777,25.6442438 25.7967144,26.417112 25.7967144,27.3704932 C25.7967144,28.1913622 26.3730752,28.8784106 27.1454512,29.0535407 C26.989919,29.08163 26.8292203,29.0967426 26.6649709,29.0967426 C25.2263964,29.0967426 24.0602014,27.9374404 24.0602014,26.5073685 C24.0602014,25.0772967 25.2263964,23.9179945 26.6649709,23.9179945 Z" id="eye" fill="#FFDC73"></path>
            <g id="horn" transform="translate(0.068857, 0.046723)">
                <mask id="mask-4" fill="white">
                    <use xlink:href="#path-3"></use>
                </mask>
                <use id="Path" fill="#FFDC73" fill-rule="nonzero" xlink:href="#path-3"></use>
                <path d="M16.9861225,6.56184627 C18.7002979,8.63466076 19.8082397,10.6017205 20.3099478,12.4630256 C20.8116417,14.3243346 20.7523994,16.2479421 20.1322209,18.2338483 L18.4548782,18.6806346 C19.1196676,16.4924661 19.1881248,14.4191757 18.6602498,12.4607632 C18.1323748,10.5023508 17.0152181,8.68497388 15.3087797,7.00863249 L16.9861225,6.56184627 Z M11.4292809,3.59903861 C13.2631175,5.99615576 14.3416057,7.7941315 14.6647453,8.99296583 C14.9878792,10.1918017 14.8082764,11.7286837 14.1259367,13.6036118 L12.448594,14.050398 C13.2233988,12.4047738 13.3774885,10.7163729 12.9108629,8.98519549 C12.4442373,7.25401803 11.3912624,5.60756114 9.75193819,4.04582483 L11.4292809,3.59903861 Z M5.2483018,-0.343151281 C6.86696479,1.36009516 7.84722467,2.84585489 8.18908143,4.11412791 C8.53093163,5.38240269 8.2997428,6.67569107 7.49551496,7.99399305 L5.81817222,8.44077927 C6.62802699,6.98623442 6.83949075,5.54121339 6.45256352,4.1057162 C6.06563629,2.67021901 5.10510147,1.33619192 3.57095906,0.103634938 L5.2483018,-0.343151281 Z" id="Combined-Shape" fill="#DF64A4" mask="url(#mask-4)"></path>
            </g>
        </g>
    </g>
</svg>