<?xml version="1.0" encoding="UTF-8"?>
<svg width="37px" height="36px" viewBox="0 0 37 36" version="1.1" xmlns="http://www.w3.org/2000/svg" xmlns:xlink="http://www.w3.org/1999/xlink">
    <!-- Generator: Sketch 57.1 (83088) - https://sketch.com -->
    <title>Untitled</title>
    <desc>Created with Sketch.</desc>
    <defs>
        <linearGradient x1="0%" y1="32.0797433%" x2="100%" y2="50%" id="linearGradient-1">
            <stop stop-color="#FF639E" offset="0%"></stop>
            <stop stop-color="#5C74FF" stop-opacity="0.5" offset="100%"></stop>
        </linearGradient>
        <path d="M31.906,6.062 C32.437,7.374 32.754,9.772 32.501,11.38 C32.351,7.457 29.313,4.799 28.125,4.187 C25.923,3.05 23.753,3.208 21.326,3.415 C21.437,3.583 21.729,4.229 21.646,4.962 C21.167,4.087 20.042,3.542 19.313,3.691 C17.953,3.968 16.752,4.368 15.838,4.847 C15.334,4.949 14.589,5.26 13.466,5.948 C11.555,7.119 9.291,10.286 6.729,9.459 C7.771,11.959 10.36,11.304 10.36,11.304 C11.567,9.354 14.427,7.525 16.528,6.852 C24.147,5.107 29.142,10.291 31.959,16.25 C32.727,17.875 34.57,23.382 36,26.542 C36.6666667,25.6284206 37,23.3627116 37,19.744873 C37,16.2843434 36.6950241,13.45348 36.0850723,11.2522828 L36.0850684,11.2522839 C36.0280152,11.0463901 35.9545576,10.8453982 35.8654007,10.6512375 C35.0055242,8.77865032 33.685724,7.24890447 31.906,6.062 Z" id="path-2"></path>
        <path d="M13.6598165,7.9524027 L13.6628165,7.9504027 L13.6578165,7.9434027 L13.6418165,7.9294027 C13.6338165,7.9224027 13.6308165,7.9104027 13.6228165,7.9044027 C13.6138165,7.8974027 13.6018165,7.8934027 13.5918165,7.8864027 C12.4368165,6.9064027 0.748816456,-0.666597301 0.0348164557,0.0474026989 C-0.694183544,0.776402699 10.2588165,9.5704027 10.9648165,10.1084027 L10.9758165,10.1144027 L11.5168165,10.5534027 C11.5248165,10.5604027 11.5268165,10.5714027 11.5348165,10.5774027 C11.5478165,10.5874027 11.5628165,10.5924027 11.5768165,10.6014027 L11.6238165,10.6394027 L11.6148165,10.6234027 C12.1798165,10.9844027 13.0418165,10.7374027 13.5938165,10.0314027 C14.1528165,9.3164027 14.1708165,8.4064027 13.6598165,7.9524027 L13.6598165,7.9524027 Z" id="path-3"></path>
    </defs>
    <g id="Page-1" stroke="none" stroke-width="1" fill="none" fill-rule="evenodd">
        <g id="unicorn">
            <path d="M36,19.854 C33.518,9.923 25.006,1.909 16.031,6.832 C16.031,6.832 11.509,5.336 10.857,4.884 C10.222,4.444 9.222,3.98 9.945,5.32 C10.368,6.102 10.82,6.992 12.348,8.637 C8,12.958 9.279,18.262 7.743,21.75 C6.439,24.712 5.166,26.483 6.433,28.726 C7.75,31.056 11.162,32.188 13.451,29.786 C14.695,28.479 13.922,27.849 16.583,25.584 C19.306,25.041 20.977,23.793 20.977,21.209 C20.977,21.209 21.772,20.827 22.803,27.218 C23.0790131,28.9237128 23.0937069,31.4941701 22.8470813,34.9293719 C22.8075131,35.4802478 23.2220262,35.9588832 23.7729034,35.9984327 C23.7967353,36.0001437 23.8206208,36.001 23.8445141,36.001 L35,36.001 C35.5522847,36.001 36,35.5532847 36,35.001 L36,19.854 L36,19.854 Z" id="body" fill="#1A2241" fill-rule="nonzero"></path>
            <g id="mane" fill-rule="nonzero">
                <use fill="#60379A" xlink:href="#path-2"></use>
                <use fill="url(#linearGradient-1)" xlink:href="#path-2"></use>
            </g>
            <g id="ear" transform="translate(12.941522, 3.069822)" fill-rule="nonzero">
                <path d="M0.847478093,0.592178111 C1.42047809,1.38017811 4.08347809,1.38617811 5.44347809,4.41217811 C6.80247809,7.43817811 3.50047809,7.04217811 2.30347809,5.64217811 C0.969478093,4.08117811 0.372478093,2.77917811 0.138478093,1.65017811 C0.0144780927,1.05417811 -0.312521907,-0.998821889 0.847478093,0.592178111 L0.847478093,0.592178111 Z" id="Path" fill="#1A2241"></path>
                <path d="M1.26747809,1.89217811 C2.22347809,2.46517811 3.43147809,3.40717811 3.78447809,4.48817811 C4.13547809,5.56917811 3.07747809,5.37917811 2.43547809,4.44617811 C1.79447809,3.51217811 1.49547809,2.47117811 1.15047809,2.18317811 C0.804478093,1.89417811 1.26747809,1.89217811 1.26747809,1.89217811 Z" id="Path" fill="#5E55CC"></path>
            </g>
            <path d="M8.63,26.877 C8.749,27.535 8.449,28.14 7.96,28.228 C7.47,28.317 6.976,27.856 6.856,27.198 C6.737,26.539 7.038,25.933 7.527,25.844 C8.017,25.756 8.511,26.217 8.63,26.877 Z" id="nostril" fill="#5E55CC" fill-rule="nonzero"></path>
            <path d="M15.5,14 C16.3284271,14 17,14.6715729 17,15.5 C17,15.5936603 16.9914159,15.6853157 16.9749915,15.7742223 C16.8722862,15.3308771 16.4747834,15 16,15 C15.4477153,15 15,15.4477153 15,16 C15,16.4747834 15.3308771,16.8722862 15.7746216,16.9744988 L15.64446,16.9931334 L15.64446,16.9931334 L15.5,17 C14.6715729,17 14,16.3284271 14,15.5 C14,14.6715729 14.6715729,14 15.5,14 Z" id="eye" fill="#FFDC73"></path>
            <g id="horn" transform="translate(0.184184, 0.171597)">
                <mask id="mask-4" fill="white">
                    <use xlink:href="#path-3"></use>
                </mask>
                <use id="Path" fill="#FFDC73" fill-rule="nonzero" xlink:href="#path-3"></use>
                <path d="M9.78174228,3.8012157 C10.7688788,5.00197759 11.4069036,6.14147734 11.6958165,7.21971494 C11.9847294,8.29795255 11.9506157,9.41227973 11.5934756,10.5626965 L10.6275498,10.8215155 C11.0103799,9.55393018 11.0498021,8.35289257 10.7458165,7.2184027 C10.4418308,6.08391283 9.79849748,5.03112351 8.81581646,4.06003474 L9.78174228,3.8012157 Z M6.58174228,2.08488914 C7.63778772,3.47351652 8.25885229,4.51506714 8.444936,5.20954101 C8.63101972,5.90401488 8.52759323,6.79431591 8.13465655,7.8804441 L7.16873073,8.13926315 C7.61491504,7.18596854 7.70365013,6.20789384 7.434936,5.20503906 C7.16622187,4.20218427 6.55984869,3.24840732 5.61581646,2.34370819 L6.58174228,2.08488914 Z M3.02232223,-0.198784303 C3.95445635,0.787890305 4.51895442,1.64857717 4.71581646,2.38327629 C4.91267849,3.1179754 4.77954549,3.86716492 4.31641746,4.63084483 L3.35049163,4.88966387 C3.81686002,4.04705975 3.93863496,3.20997269 3.71581646,2.3784027 C3.49299795,1.54683271 2.93985793,0.774043387 2.05639641,0.0600347425 L3.02232223,-0.198784303 Z" id="Combined-Shape" fill="#DF64A4" mask="url(#mask-4)"></path>
            </g>
        </g>
    </g>
</svg>